<svg width="128" height="128" viewBox="0 0 128 128" fill="none" xmlns="http://www.w3.org/2000/svg">
<path d="M75.3973 14.6027C71.4347 18.5653 69.3813 25.472 70.8747 30.88C71.6693 33.7387 71.7973 37.2 69.7013 39.3013L39.3013 69.7013C37.2 71.7973 33.7387 71.6693 30.8747 70.8746C25.472 69.3813 18.5653 71.4346 14.6027 75.3973C13.3549 76.6447 12.3651 78.1256 11.6897 79.7555C11.0143 81.3855 10.6666 83.1324 10.6663 84.8968C10.6658 88.46 12.0808 91.8774 14.6 94.3973C17.1192 96.9172 20.5363 98.3332 24.0995 98.3337C27.6627 98.3342 31.0801 96.9192 33.6 94.4C31.0808 96.9199 29.6658 100.337 29.6663 103.901C29.6668 107.464 31.0828 110.881 33.6027 113.4C36.1226 115.919 39.54 117.334 43.1032 117.334C46.6664 117.333 50.0835 115.917 52.6027 113.397C56.5653 109.435 58.6187 102.528 57.1253 97.12C56.3307 94.2613 56.2027 90.8 58.2987 88.6986L88.6987 58.2986C90.8 56.2026 94.2614 56.3307 97.1254 57.1253C102.528 58.6187 109.435 56.5653 113.397 52.6026C115.917 50.0834 117.333 46.6664 117.334 43.1032C117.334 39.54 115.919 36.1226 113.4 33.6026C112.153 32.3549 110.672 31.3651 109.042 30.6897C107.412 30.0143 105.665 29.6665 103.901 29.6663C100.337 29.6658 96.9199 31.0808 94.4 33.6C96.9192 31.0801 98.3342 27.6626 98.3337 24.0994C98.3332 20.5362 96.9172 17.1192 94.3973 14.6C91.8774 12.0808 88.46 10.6658 84.8968 10.6663C81.3336 10.6668 77.9165 12.0827 75.3973 14.6027Z" fill="#DE9D43"/>
</svg>
