<svg width="128" height="128" viewBox="0 0 128 128" fill="none" xmlns="http://www.w3.org/2000/svg">
<g clip-path="url(#clip0_104_22)">
<path d="M40 101.333C42.1218 101.333 44.1566 102.176 45.6569 103.676C47.1572 105.177 48 107.212 48 109.333C48 111.455 47.1572 113.49 45.6569 114.99C44.1566 116.49 42.1218 117.333 40 117.333C37.8783 117.333 35.8435 116.49 34.3432 114.99C32.8429 113.49 32 111.455 32 109.333C32 107.212 32.8429 105.177 34.3432 103.676C35.8435 102.176 37.8783 101.333 40 101.333ZM93.3334 101.333C95.4551 101.333 97.4899 102.176 98.9902 103.676C100.49 105.177 101.333 107.212 101.333 109.333C101.333 111.455 100.49 113.49 98.9902 114.99C97.4899 116.49 95.4551 117.333 93.3334 117.333C91.2116 117.333 89.1768 116.49 87.6765 114.99C86.1762 113.49 85.3334 111.455 85.3334 109.333C85.3334 107.212 86.1762 105.177 87.6765 103.676C89.1768 102.176 91.2116 101.333 93.3334 101.333ZM16 10.6667C25.2054 10.6667 32.1227 17.5093 32.7734 26.6667H105.611C107.173 26.6664 108.717 27.0095 110.132 27.6717C111.548 28.3338 112.8 29.2989 113.802 30.4985C114.803 31.6982 115.528 33.1032 115.927 34.6142C116.325 36.1252 116.386 37.7053 116.107 39.2427L107.376 87.2427C106.929 89.7004 105.633 91.9232 103.715 93.5236C101.797 95.124 99.3781 96.0004 96.88 96H36.9654C34.2674 96 31.6697 94.9778 29.6954 93.139C27.7211 91.3003 26.5169 88.7818 26.3254 86.0907L22.0587 26.288C21.8134 22.9867 19.008 21.3333 16 21.3333C14.5855 21.3333 13.229 20.7714 12.2288 19.7712C11.2286 18.771 10.6667 17.4145 10.6667 16C10.6667 14.5855 11.2286 13.2289 12.2288 12.2288C13.229 11.2286 14.5855 10.6667 16 10.6667Z" fill="#6F95F6"/>
</g>
<defs>
<clipPath id="clip0_104_22">
<rect width="128" height="128" fill="white"/>
</clipPath>
</defs>
</svg>
