<svg width="128" height="128" viewBox="0 0 128 128" fill="none" xmlns="http://www.w3.org/2000/svg">
<path d="M106.667 10.6667C108.081 10.6667 109.438 11.2286 110.438 12.2288C111.438 13.229 112 14.5855 112 16V112C112 113.414 111.438 114.771 110.438 115.771C109.438 116.771 108.081 117.333 106.667 117.333H32C30.5855 117.333 29.229 116.771 28.2288 115.771C27.2286 114.771 26.6667 113.414 26.6667 112V101.333H16V90.6667H26.6667V80H16V69.3333H26.6667V58.6667H16V48H26.6667V37.3333H16V26.6667H26.6667V16C26.6667 14.5855 27.2286 13.229 28.2288 12.2288C29.229 11.2286 30.5855 10.6667 32 10.6667H106.667ZM74.6667 42.6667H64V58.6667H48V69.3333H63.9947L64 85.3333H74.6667L74.6613 69.3333H90.6667V58.6667H74.6667V42.6667Z" fill="#787DF3"/>
</svg>
