<svg width="128" height="128" viewBox="0 0 128 128" fill="none" xmlns="http://www.w3.org/2000/svg">
<path d="M88 16C104.203 16 117.333 29.3333 117.333 48C117.333 85.3333 77.3333 106.667 64 114.667C53.4506 108.341 26.2186 93.6693 15.3013 69.3333H40.352L45.3333 61.0347L61.3333 87.7013L72.352 69.3333H90.6666V58.6667H66.3146L61.3333 66.9653L45.3333 40.2987L34.3146 58.6667H11.7866C11.039 55.1604 10.6636 51.5851 10.6666 48C10.6666 29.3333 24 16 40 16C49.92 16 58.6666 21.3333 64 26.6667C69.3333 21.3333 78.08 16 88 16Z" fill="#D05166"/>
</svg>
