<?xml version="1.0" encoding="UTF-8"?>
<svg id="_레이어_2" data-name="레이어 2" xmlns="http://www.w3.org/2000/svg" viewBox="0 0 172.88 37.19">
  <g id="Layer_1" data-name="Layer 1">
    <g>
      <path d="m0,.52h13.42c7.95,0,13.31,4.9,13.31,12.69s-5.37,12.59-13.31,12.59h-5.26v7.28c0,2.25-1.83,4.08-4.08,4.08h0c-2.25,0-4.08-1.83-4.08-4.08V.52Zm12.64,17.8c3.3,0,5.83-1.19,5.83-5.11s-2.53-5.21-5.83-5.21h-4.49v10.32h4.49Z" fill="#508ecb" stroke-width="0"/>
      <path d="m28.23,23.27c0-9.08,6.76-13.99,13.67-13.99s14.81,4.75,13.11,17.03h-19.09c1.08,2.89,3.77,4.33,7.33,4.33,1.7,0,3.26-.29,4.73-1,1.09-.53,2.38-.38,3.21.49l.2.21c1.14,1.19,1.03,3.14-.29,4.11-2.22,1.63-5.19,2.68-8.73,2.68-7.43,0-14.14-5.06-14.14-13.88Zm19.76-2.68c-.57-3.1-3.3-4.59-5.99-4.59s-5.37,1.39-6.24,4.59h12.23Z" fill="#508ecb" stroke-width="0"/>
      <path d="m60.73,28.59v-12.23h-3.97v-6.35h3.97v-2.86c0-2.21,1.79-4,4-4s4,1.79,4,4v2.86h5.62v6.35h-5.62v10.94c0,1.34.77,2.79,3.2,2.79.62,0,1.55-.1,2.53-.41,0,0,1.98,7.48-5.11,7.48-.02,0-.04,0-.06,0-4.95,0-8.56-2.42-8.56-8.56Z" fill="#508ecb" stroke-width="0"/>
      <path d="m97.53,37.19v-3.6h-.16c-.41.98-3.2,3.56-7.95,3.56-6.09,0-12.8-4.59-12.8-13.93s6.71-13.93,12.8-13.93c4.75,0,7.54,2.58,7.95,3.56h.16V4C97.53,1.79,99.32,0,101.52,0h0c2.21,0,4,1.79,4,4v33.19h-8Zm-6.45-7.16c3.51,0,6.66-2.43,6.66-6.81s-3.15-6.81-6.66-6.81-6.55,2.48-6.55,6.81,3.15,6.81,6.55,6.81Z" fill="#508ecb" stroke-width="0"/>
      <path d="m147.11,10.32h0c2.21,0,4,1.79,4,4v3.28c.88-4.34,3.46-7.79,8.31-7.79.62,0,1.24.05,1.91.26v7.58c-.62-.1-1.19-.15-1.86-.15-5.32,0-8.36,3.56-8.36,8.62v11.04h-8V14.32c0-2.21,1.79-4,4-4Z" fill="#508ecb" stroke-width="0"/>
      <path d="m168.88,10.32h0c2.21,0,4,1.79,4,4v22.83h-8V14.32c0-2.21,1.79-4,4-4Zm4-6.32c0,2.21-1.79,4-4,4s-4-1.79-4-4,1.79-4,4-4,4,1.79,4,4Z" fill="#508ecb" stroke-width="0"/>
      <path d="m139.57,13.1c0-4.2-2.81-7.49-6.4-7.49-.29,0-.57.03-.84.07-1.15-1.91-3.05-3.13-5.23-3.13-1.11,0-2.14.31-3.04.87-.9-.56-1.93-.87-3.04-.87-2.19,0-4.08,1.23-5.23,3.13-.28-.04-.55-.07-.84-.07-3.59,0-6.4,3.29-6.4,7.49,0,2.45.96,4.59,2.47,5.95-.54,1.44-.84,3-.84,4.65,0,7.55,6.1,13.46,13.89,13.46s13.89-5.91,13.89-13.46c0-1.64-.31-3.2-.84-4.65,1.51-1.36,2.47-3.5,2.47-5.95Zm-12.68-5.58c1.16,0,2.16,1.3,2.16,3.18s-1,3.18-2.16,3.18-2.17-1.31-2.17-3.18,1-3.18,2.17-3.18Zm-5.67,0c1.16,0,2.16,1.3,2.16,3.18s-1,3.18-2.16,3.18-2.17-1.31-2.17-3.18,1-3.18,2.17-3.18Zm-7.83,6.03c0-1.87,1-3.18,2.16-3.18s2.17,1.31,2.17,3.18-1,3.18-2.17,3.18-2.16-1.31-2.16-3.18Zm10.67,17.2c-4.11,0-7.66-3.02-7.66-7.32s3.55-7.3,7.66-7.3,7.66,3,7.66,7.3-3.55,7.32-7.66,7.32Zm8.5-14.02c-1.16,0-2.16-1.31-2.16-3.18s1-3.18,2.16-3.18,2.17,1.31,2.17,3.18-1,3.18-2.17,3.18Z" fill="#508ecb" stroke-width="0"/>
    </g>
  </g>
</svg>